<svg width="24" height="24" viewBox="0 0 24 24" fill="none" xmlns="http://www.w3.org/2000/svg">
<path d="M22.7521 8.01007C21.714 6.72359 20.1484 5.97724 18.4952 5.98071H16.4648L16.5545 5.45468C16.92 3.31174 15.4792 1.27826 13.3363 0.912726C13.1005 0.872507 12.8615 0.853851 12.6224 0.857038C11.1197 0.84921 9.74123 1.68959 9.05981 3.02885L7.55348 5.98071H5.47931C2.45456 5.98404 0.00328125 8.43527 0 11.4601V16.4413C0.00328125 19.4661 2.45456 21.9173 5.47931 21.9206H17.4422C20.0277 21.9112 22.2583 20.1035 22.803 17.576L23.856 12.5948C24.2015 10.9782 23.7956 9.2922 22.7521 8.01007ZM2.9887 16.4412V11.4601C2.9887 10.0846 4.10377 8.96946 5.47931 8.96946H6.97369V18.9319H5.47931C4.10381 18.9319 2.9887 17.8168 2.9887 16.4412ZM20.932 11.9761L19.878 16.9573C19.6308 18.1061 18.6172 18.9277 17.4421 18.9319H9.96239V7.83471L11.7218 4.38673C11.9082 4.03769 12.2789 3.82718 12.6742 3.84579C13.1979 3.84612 13.6223 4.27104 13.622 4.79482C13.6219 4.84769 13.6175 4.90048 13.6087 4.9526L12.9242 8.96946H18.4952C19.8707 8.96932 20.9859 10.0843 20.986 11.4598C20.9861 11.6333 20.9679 11.8063 20.932 11.9761Z" fill="white"/>
</svg>
